# AST/ASF file generated using VICON BodyLanguage
# -----------------------------------------------
:version 1.10
:name VICON
:units
  mass 1.0
  length 0.45
  angle deg
:documentation
   .ast/.asf automatically generated from VICON data using
   VICON BodyBuilder and BodyLanguage model FoxedUp or BRILLIANT.MOD
:root
   order TX TY TZ RX RY RZ
   axis XYZ
   position 0 0 0  
   orientation 0 0 0 
:bonedata
  begin
     id 1 
     name lhipjoint
     direction 0.521689 -0.742065 0.420928 
     length 2.47002 
     axis 0 0 0  XYZ
  end
  begin
     id 2 
     name lfemur
     direction 0.34202 -0.939693 0  
     length 7.24654  
     axis 0 0 20  XYZ
    dof rx ry rz
    limits (-160.0 20.0)
           (-70.0 70.0)
           (-60.0 70.0)
  end
  begin
     id 3 
     name ltibia
     direction 0.34202 -0.939693 0   
     length 8.04849   
     axis 0 0 20   XYZ
    dof rx
    limits (-10.0 170.0)
  end
  begin
     id 4 
     name lfoot
     direction 0.0745411 -0.2048 0.975961   
     length 1.72367   
     axis -90 7.62852e-016 20   XYZ
    dof rx rz
    limits (-45.0 90.0)
           (-70.0 20.0)
  end
  begin
     id 5 
     name ltoes
     direction 1.53556e-011 -4.21901e-011 1   
     length 0.87311   
     axis -90 7.62852e-016 20   XYZ
    dof rx
    limits (-90.0 20.0)
  end
  begin
     id 6 
     name rhipjoint
     direction -0.52849 -0.738415 0.418857   
     length 2.48223  
     axis 0 0 0  XYZ 
  end
  begin
     id 7 
     name rfemur
     direction -0.34202 -0.939693 0   
     length 7.15571   
     axis 0 0 -20   XYZ
    dof rx ry rz
    limits (-160.0 20.0)
           (-70.0 70.0)
           (-70.0 60.0)
  end
  begin
     id 8 
     name rtibia
     direction -0.34202 -0.939693 0   
     length 7.81659   
     axis 0 0 -20   XYZ
    dof rx
    limits (-10.0 170.0)
 end
 begin
     id 9 
     name rfoot
     direction -0.0917348 -0.252039 0.963359   
     length 1.84382  
     axis -90 -7.62852e-016 -20   XYZ
    dof rx rz
    limits (-45.0 90.0)
           (-20.0 70.0)
  end
  begin
     id 10 
     name rtoes
     direction -1.53551e-011 -4.21879e-011 1   
     length 0.927771   
     axis -90 -7.62852e-016 -20   XYZ
    dof rx
    limits (-90.0 20.0)
  end
  begin
     id 11 
     name lowerback
     direction 0.00583058 0.999822 0.0179296   
     length 2.1429   
     axis 0 0 0   XYZ
    dof rx ry rz
    limits (-20.0 45.0)
           (-30.0 30.0)
           (-30.0 30.0)
  end
  begin
     id 12 
     name upperback
     direction -0.0137999 0.999752 -0.0175071   
     length 2.14252   
     axis 0 0 0   XYZ
    dof rx ry rz
    limits (-20.0 45.0)
           (-30.0 30.0)
           (-30.0 30.0)
  end
  begin
     id 13 
     name thorax
     direction -0.0158036 0.99955 -0.0254909   
     length 2.1383   
     axis 0 0 0   XYZ
    dof rx ry rz
    limits (-20.0 45.0)
           (-30.0 30.0)
           (-30.0 30.0)
  end
  begin
     id 14 
     name lowerneck
     direction -0.0101179 0.999403 -0.0330262   
     length 1.65808   
     axis 0 0 0   XYZ
    dof rx ry rz
    limits (-20.0 45.0)
           (-30.0 30.0)
           (-30.0 30.0)
  end
  begin
     id 15 
     name upperneck
     direction 0.0497734 0.995978 -0.074501   
     length 1.5897   
     axis 0 0 0   XYZ
    dof rx ry rz
    limits (-20.0 45.0)
           (-30.0 30.0)
           (-30.0 30.0)
  end
  begin
     id 16
     name head
     direction 0.0189524 0.999519 -0.0245438  
     length 1.74024  
     axis 0 0 0   XYZ
    dof rx ry rz
    limits (-20.0 45.0)
           (-30.0 30.0)
           (-30.0 30.0)
  end
  begin
     id 17 
     name lclavicle
     direction 0.945604 0.324422 0.0241537  
     length 3.59089  
     axis 0 0 0   XYZ
    dof ry rz
    limits (-20.0 10.0)
           (0.0 20.0)
  end
  begin
     id 18 
     name lhumerus
     direction 1 -4.48964e-011 -2.63524e-027   
     length 5.2391   
     axis 180 -30 -90   XYZ
    dof rx ry rz
    limits (-60.0 90.0)
           (-90.0 90.0)
           (-90.0 90.0)
  end
  begin
     id 19
     name lradius
     direction 1 -4.48969e-011 3.86978e-028   
     length 3.31467   
     axis 180 -30 -90   XYZ
    dof rx
    limits (-10.0 170.0)
  end
  begin
     id 20
     name lwrist
     direction 1 -4.48963e-011 7.20928e-028   
     length 1.65734   
     axis -5.52449e-016 90 90   XYZ
    dof ry
    limits (-180.0 0.0)
 end
  begin
     id 21 
     name lhand
     direction 1 -4.48964e-011 1.44186e-027   
     length 0.9659   
     axis -9.20027e-016 90 90   XYZ
    dof rx rz
    limits (-90.0 90.0)
           (-45.0 45.0)
  end
  begin
     id 22 
     name lfingers
     direction 1 -4.48965e-011 2.88371e-027   
     length 0.778733   
     axis -1.84005e-015 90 90   XYZ
    dof rx
    limits (0.0 90.0)
  end
  begin
     id 23
     name lthumb
     direction 0.707107 -6.34931e-011 0.707107   
     length 1.11811   
     axis -90 45 2.85299e-015   XYZ
    dof rx rz
    limits (-45.0 45.0)
           (-45.0 45.0)
  end
  begin
     id 24 
     name rclavicle
     direction -0.923762 0.370785 0.0958234   
     length 3.54196  
     axis 0 0 0   XYZ 
    dof ry rz
    limits (-10.0 20.0)
           (-20.0 0.0)
  end
  begin
     id 25 
     name rhumerus
     direction -1 -4.48966e-011 1.18702e-017  
     length 5.30252   
     axis 180 30 90   XYZ
    dof rx ry rz
    limits (-90.0 60.0)
           (-90.0 90.0)
           (-90.0 90.0)
  end
  begin
     id 26 
     name rradius
     direction -1 -4.48966e-011 4.46736e-027   
     length 3.67875   
     axis 180 30 90   XYZ
    dof rx
    limits (-10.0 170.0)
  end
  begin
     id 27 
     name rwrist
     direction -1 -4.48966e-011 7.20928e-028   
     length 1.83937   
     axis -5.52449e-016 -90 -90   XYZ
    dof ry
    limits (-180.0 0.0)
  end
  begin
     id 28
     name rhand
     direction -1 -4.48973e-011 1.44186e-027   
     length 0.594811   
     axis -9.20027e-016 -90 -90   XYZ
    dof rx rz
    limits (-90.0 90.0)
           (-45.0 45.0)
  end
  begin
     id 29
     name rfingers
     direction -1 -4.48963e-011 2.88371e-027   
     length 0.479552   
     axis -1.84005e-015 -90 -90   XYZ
    dof rx
    limits (0.0 90.0)
  end
  begin
     id 30
     name rthumb
     direction -0.707107 -6.34932e-011 0.707107   
     length 0.688544   
     axis -90 -45 -2.85299e-015   XYZ
    dof rx rz
    limits (-45.0 45.0)
           (-45.0 45.0)
  end
:hierarchy
  begin
    root lhipjoint rhipjoint lowerback
    lhipjoint lfemur
    lfemur ltibia
    ltibia lfoot
    lfoot ltoes
    rhipjoint rfemur
    rfemur rtibia
    rtibia rfoot
    rfoot rtoes
    lowerback upperback
    upperback thorax
    thorax lowerneck lclavicle rclavicle
    lowerneck upperneck
    upperneck head
    lclavicle lhumerus
    lhumerus lradius
    lradius lwrist
    lwrist lhand lthumb
    lhand lfingers
    rclavicle rhumerus
    rhumerus rradius
    rradius rwrist
    rwrist rhand rthumb
    rhand rfingers
  end

#!OML:ASF E:\acrobat2\Project_11_07_03\Capture day 1\Session 1\Acrobat.ASF
:FULLY-SPECIFIED
:DEGREES
84
root 8.40539 18.1722 -31.6149 4.14145 25.6854 -1.4018
lowerback -6.66001 -0.480001 -1.05369
upperback -0.291756 -0.549959 -0.181609
thorax 3.44158 -0.287302 0.352115
lowerneck 0.303009 -5.20123 -1.26092
upperneck 1.87256 -7.03389 5.80385
head 0.800878 -3.48444 1.96892
rclavicle 4.68945e-014 3.18055e-015
rhumerus -39.9641 -4.03519 -79.8784
rradius 28.5071
rwrist 1.84211
rhand -4.21429 -42.0145
rfingers 7.12502
rthumb 21.5482 -70.8357
lclavicle 4.68945e-014 3.18055e-015
lhumerus -30.7313 -11.5067 87.0385
lradius 20.6763
lwrist 9.8054
lhand -12.0755 -12.0412
lfingers 7.12502
lthumb 13.9842 17.4684
rfemur -1.46718 6.79313 14.4385
rtibia -0.347807
rfoot -28.8431 -34.1647
rtoes 24.247
lfemur 3.41766 -1.00157 -15.6098
ltibia 2.29217
lfoot -20.4356 2.96431
ltoes 31.5219
85
root 8.40229 18.1731 -31.6177 4.12604 25.6436 -1.46605
lowerback -6.57293 -0.469508 -0.97014
upperback -0.353049 -0.544313 -0.164457
thorax 3.32868 -0.282664 0.324465
lowerneck 0.135152 -5.15558 -1.27886
upperneck 2.10439 -6.98424 5.78382
head 0.900223 -3.45328 1.95863
rclavicle -2.37237e-014 2.78299e-015
rhumerus -39.9983 -3.91734 -79.9002
rradius 28.4788
rwrist 1.75657
rhand -4.15718 -41.9298
rfingers 7.12502
rthumb 21.603 -70.7448
lclavicle -2.37237e-014 2.78299e-015
lhumerus -30.7157 -11.2667 86.9567
lradius 20.573
lwrist 9.61122
lhand -11.9425 -12.1131
lfingers 7.12502
lthumb 14.1124 17.3876
rfemur -1.50617 6.89696 14.5114
rtibia -0.316397
rfoot -28.934 -34.1533
rtoes 24.381
lfemur 3.3844 -1.00399 -15.5243
ltibia 2.32763
lfoot -20.4752 3.03061
ltoes 31.4738
86
root 8.40083 18.1741 -31.6189 4.12988 25.6141 -1.44276
lowerback -6.50033 -0.484464 -1.00652
upperback -0.391239 -0.563905 -0.128019
thorax 3.24951 -0.29275 0.381437
lowerneck 0.0666059 -5.11132 -1.33434
upperneck 2.20318 -6.9291 5.75019
head 0.941616 -3.42376 1.95515
rclavicle 3.9701e-014 -6.36111e-015
rhumerus -39.9773 -3.68905 -79.9177
rradius 28.374
rwrist 1.62895
rhand -4.31078 -41.6539
rfingers 7.12502
rthumb 21.4555 -70.4858
lclavicle 3.9701e-014 -6.36111e-015
lhumerus -30.6954 -10.8948 86.9024
lradius 20.4881
lwrist 9.50265
lhand -11.8818 -12.3358
lfingers 7.12502
lthumb 14.1709 17.1609
rfemur -1.48955 6.91641 14.4839
rtibia -0.320154
rfoot -29.0764 -34.0153
rtoes 24.9023
lfemur 3.40063 -1.02593 -15.5551
ltibia 2.29775
lfoot -20.4975 3.09337
ltoes 31.3636
87
root 8.4007 18.1743 -31.619 4.16844 25.6393 -1.37199
lowerback -6.51694 -0.511604 -1.10996
upperback -0.391279 -0.593358 -0.0946608
thorax 3.26064 -0.309159 0.471049
lowerneck -0.0596554 -5.00327 -1.53159
upperneck 2.44852 -6.80052 5.95206
head 1.052 -3.35313 2.05062
rclavicle 1.63997e-015 -3.18055e-015
rhumerus -39.9191 -3.51887 -79.9203
rradius 28.3041
rwrist 1.50452
rhand -4.4663 -41.6646
rfingers 7.12502
rthumb 21.3061 -70.5134
lclavicle 1.63997e-015 -3.18055e-015
lhumerus -30.6518 -10.6982 86.914
lradius 20.5105
lwrist 9.51189
lhand -11.7859 -12.2696
lfingers 7.12502
lthumb 14.2633 17.2206
rfemur -1.466 6.83656 14.4004
rtibia -0.399087
rfoot -28.9088 -34.0569
rtoes 24.6757
lfemur 3.39464 -1.03456 -15.6406
ltibia 2.28606
lfoot -20.4841 3.05638
ltoes 31.2687
88
root 8.3993 18.1744 -31.6193 4.19682 25.636 -1.32115
lowerback -6.55428 -0.516188 -1.22212
upperback -0.402212 -0.591871 -0.0596153
thorax 3.27178 -0.310265 0.570048
lowerneck 0.174708 -5.10275 -1.48929
upperneck 2.12164 -6.9149 5.83749
head 0.906774 -3.4203 2.01438
rclavicle -1.8313e-014 -3.97569e-015
rhumerus -39.9396 -3.42314 -79.8951
rradius 28.316
rwrist 1.46249
rhand -4.42176 -41.9628
rfingers 7.12502
rthumb 21.3489 -70.8068
lclavicle -1.8313e-014 -3.97569e-015
lhumerus -30.6131 -10.5863 86.9576
lradius 20.473
lwrist 9.52554
lhand -11.7906 -12.2039
lfingers 7.12502
lthumb 14.2588 17.2866
rfemur -1.46253 6.78501 14.3513
rtibia -0.460331
rfoot -28.6651 -34.1534
rtoes 24.1119
lfemur 3.38481 -1.01452 -15.6913
ltibia 2.29188
lfoot -20.4663 2.97053
ltoes 31.5398
89
root 8.39743 18.1754 -31.6196 4.18248 25.5766 -1.32126
lowerback -6.54932 -0.49523 -1.25553
upperback -0.442601 -0.562488 -0.0374945
thorax 3.22726 -0.295817 0.6146
lowerneck 0.261137 -5.07866 -1.53105
upperneck 2.20386 -6.8864 5.84619
head 0.918765 -3.4063 2.02629
rclavicle -7.55879e-014 -2.78299e-015
rhumerus -40.0293 -3.47215 -79.8395
rradius 28.3162
rwrist 1.61524
rhand -4.37706 -42.0542
rfingers 7.12502
rthumb 21.3918 -70.8933
lclavicle -7.55879e-014 -2.78299e-015
lhumerus -30.6627 -10.5316 87.0013
lradius 20.4412
lwrist 9.56388
lhand -11.9298 -12.3032
lfingers 7.12502
lthumb 14.1246 17.1968
rfemur -1.46323 6.80701 14.3595
rtibia -0.460883
rfoot -28.6217 -34.1224
rtoes 24.0255
lfemur 3.41596 -0.988021 -15.6881
ltibia 2.2711
lfoot -20.4886 2.9942
ltoes 31.6644
